<?xml version="1.0" standalone="no"?>
<!DOCTYPE svg PUBLIC "-//W3C//DTD SVG 20010904//EN"
 "http://www.w3.org/TR/2001/REC-SVG-20010904/DTD/svg10.dtd">
<svg version="1.0" xmlns="http://www.w3.org/2000/svg"
 width="1985.000000pt" height="1985.000000pt" viewBox="0 0 1985.000000 1985.000000"
 preserveAspectRatio="xMidYMid meet">
<metadata>
Created by potrace 1.11, written by Peter Selinger 2001-2013
</metadata>
<g transform="translate(0.000000,1985.000000) scale(0.100000,-0.100000)"
fill="#000000" stroke="none">
<path d="M10415 15765 c-797 -470 -1454 -855 -1458 -857 -5 -2 904 -1596 2021
-3543 l2029 -3540 1973 -3 c1577 -2 1971 0 1967 10 -13 34 -5067 8783 -5074
8784 -4 1 -660 -382 -1458 -851z"/>
<path d="M7061 12685 c-810 -458 -1477 -837 -1482 -842 -5 -5 474 -858 1131
-2013 l1140 -2005 0 -422 0 -423 430 0 430 0 0 420 0 420 1541 0 c1464 0 1541
1 1535 18 -7 18 -3235 5662 -3245 5674 -3 4 -669 -368 -1480 -827z"/>
<path d="M3605 9665 c-901 -524 -1450 -849 -1450 -858 0 -8 121 -234 270 -501
l270 -486 1973 0 1972 0 -27 48 c-362 631 -1541 2641 -1548 2641 -5 0 -662
-380 -1460 -844z"/>
<path d="M6628 7091 l-3 -710 -75 46 c-158 97 -339 168 -539 210 -118 26 -142
27 -381 28 -231 0 -265 -2 -365 -24 -552 -118 -976 -447 -1214 -941 -167 -348
-214 -759 -129 -1150 77 -360 279 -704 548 -938 398 -345 902 -486 1455 -406
226 33 491 126 657 230 21 13 40 24 43 24 3 0 5 -45 5 -100 l0 -100 425 0 425
0 0 2270 0 2270 -425 0 -425 0 -2 -709z m-738 -1220 c342 -99 619 -382 712
-730 26 -99 29 -295 5 -393 -70 -289 -266 -537 -527 -668 -278 -139 -577 -140
-855 -2 -104 51 -182 110 -271 205 -175 185 -259 401 -258 657 1 153 25 263
88 396 55 116 92 171 175 258 148 154 304 243 501 287 116 26 321 21 430 -10z"/>
<path d="M11780 7095 c0 -388 -2 -705 -4 -705 -2 0 -34 21 -72 46 -141 95
-305 160 -514 206 -94 20 -132 23 -365 23 -233 0 -271 -3 -365 -23 -723 -157
-1251 -678 -1392 -1374 -20 -98 -23 -142 -23 -338 1 -195 4 -239 23 -330 151
-697 669 -1219 1363 -1374 443 -99 973 -18 1297 198 l52 35 0 -100 0 -99 430
0 430 0 0 2270 0 2270 -430 0 -430 0 0 -705z m-725 -1223 c366 -101 640 -394
711 -760 18 -94 18 -260 0 -354 -61 -313 -282 -587 -570 -707 -245 -102 -523
-100 -758 7 -266 120 -468 353 -554 637 -24 80 -27 106 -28 240 0 136 3 159
28 239 111 362 412 639 777 716 73 15 314 5 394 -18z"/>
<path d="M19195 7782 c-118 -41 -215 -125 -268 -232 -30 -60 -32 -72 -32 -170
0 -94 3 -111 28 -164 38 -81 89 -141 159 -187 83 -53 144 -71 241 -70 176 1
307 84 380 239 42 89 49 210 18 311 -41 136 -150 241 -286 276 -78 20 -178 19
-240 -3z m239 -73 c225 -84 283 -430 100 -599 -68 -63 -123 -84 -219 -84 -139
-1 -237 63 -299 193 -28 60 -31 75 -31 161 0 81 4 103 26 151 45 95 119 162
209 190 51 15 158 10 214 -12z"/>
<path d="M19160 7375 l0 -235 40 0 40 0 0 95 0 95 38 0 37 0 40 -93 41 -92 48
-3 c56 -4 56 -8 0 115 l-34 75 26 21 c15 11 33 35 40 53 30 71 10 135 -53 179
-35 23 -46 25 -150 25 l-113 0 0 -235z m215 151 c14 -10 20 -26 20 -56 0 -55
-21 -70 -97 -70 l-58 0 0 70 0 70 58 0 c34 0 66 -6 77 -14z"/>
<path d="M7850 4990 l0 -1700 435 0 435 0 0 1700 0 1700 -435 0 -435 0 0
-1700z"/>
<path d="M18025 6665 c-496 -63 -856 -285 -1026 -630 -68 -139 -90 -230 -96
-395 -6 -161 5 -249 51 -383 62 -182 190 -352 336 -446 160 -104 452 -185 973
-272 166 -27 338 -59 382 -70 330 -84 416 -297 200 -497 -122 -113 -299 -169
-505 -159 -358 18 -581 185 -622 465 l-12 82 -448 0 -449 0 6 -52 c35 -295
146 -530 337 -714 235 -226 550 -355 963 -395 148 -15 479 -6 625 16 604 92
973 368 1086 813 22 85 24 116 24 302 0 183 -2 216 -21 276 -74 241 -256 433
-532 564 -190 90 -293 116 -732 186 -422 67 -568 104 -680 169 -96 57 -146
150 -124 231 34 123 117 198 264 239 90 25 406 32 503 11 158 -33 252 -97 307
-210 29 -57 38 -89 42 -149 l6 -77 429 0 429 0 -7 63 c-23 209 -110 419 -241
579 -182 223 -470 375 -833 439 -152 27 -478 34 -635 14z"/>
<path d="M1515 6664 c-751 -111 -1323 -635 -1488 -1361 -20 -88 -22 -126 -22
-363 0 -241 2 -274 23 -368 47 -207 133 -412 249 -592 247 -380 656 -664 1094
-759 424 -91 964 -9 1299 197 l65 40 3 -99 3 -99 424 0 425 0 0 1690 0 1690
-425 0 -424 0 -3 -129 -3 -130 -75 46 c-158 97 -337 167 -534 209 -106 23
-149 26 -351 29 -126 2 -243 1 -260 -1z m500 -794 c344 -94 610 -371 696 -727
32 -130 30 -304 -5 -438 -97 -372 -379 -638 -761 -716 -98 -20 -276 -15 -379
10 -174 42 -346 140 -476 270 -128 128 -214 279 -262 459 -26 101 -29 296 -5
394 94 382 400 682 777 763 97 21 312 13 415 -15z"/>
<path d="M14445 6663 c-212 -27 -391 -82 -580 -176 -839 -417 -1182 -1457
-766 -2322 93 -194 180 -317 329 -469 361 -367 852 -547 1377 -507 282 22 486
77 723 197 l142 71 0 -98 0 -99 405 0 405 0 0 1690 0 1690 -405 0 -404 0 -3
-129 -3 -130 -55 35 c-188 120 -415 202 -661 238 -98 15 -418 20 -504 9z m475
-788 c83 -22 230 -91 308 -144 195 -132 352 -352 414 -577 31 -115 31 -316 -1
-434 -46 -175 -134 -325 -265 -455 -257 -256 -598 -348 -935 -255 -328 92
-582 350 -674 684 -30 111 -32 365 -3 471 73 266 238 481 477 619 61 35 197
84 279 102 88 18 313 12 400 -11z"/>
</g>
</svg>
