<?xml version="1.0" standalone="no"?>
<!DOCTYPE svg PUBLIC "-//W3C//DTD SVG 20010904//EN"
 "http://www.w3.org/TR/2001/REC-SVG-20010904/DTD/svg10.dtd">
<svg version="1.0" xmlns="http://www.w3.org/2000/svg"
 width="208.000000pt" height="208.000000pt" viewBox="0 0 208.000000 208.000000"
 preserveAspectRatio="xMidYMid meet">
<metadata>
Created by potrace 1.11, written by Peter Selinger 2001-2013
</metadata>
<g transform="translate(0.000000,208.000000) scale(0.100000,-0.100000)"
fill="#000000" stroke="none">
<path d="M182 1821 c-67 -103 -122 -194 -122 -200 0 -16 468 -1111 483 -1128
5 -7 15 -13 21 -13 7 0 116 241 242 535 126 294 231 535 234 535 3 0 106 -235
229 -523 123 -287 228 -528 234 -534 5 -7 15 -13 22 -13 11 0 495 1111 495
1137 0 7 -56 98 -125 203 l-124 190 -253 0 -253 0 -110 -170 c-60 -93 -113
-170 -116 -170 -3 0 -56 77 -117 170 l-111 170 -253 0 -253 0 -123 -189z m558
133 c0 -10 -174 -274 -181 -274 -6 0 -40 49 -136 198 l-53 82 185 0 c102 0
185 -3 185 -6z m960 0 c0 -10 -174 -274 -181 -274 -4 0 -15 12 -25 28 -10 15
-51 78 -91 140 l-73 112 185 0 c102 0 185 -3 185 -6z m-1373 -312 c-104 -1
-192 0 -195 3 -3 3 39 71 92 151 l98 147 98 -149 98 -149 -191 -3z m572 145
c51 -77 91 -141 88 -143 -2 -2 -90 -3 -196 -2 l-191 3 96 148 c53 82 100 145
104 140 4 -4 49 -70 99 -146z m388 -145 c-104 -1 -192 0 -195 3 -3 3 39 71 92
151 l98 147 98 -149 98 -149 -191 -3z m568 152 c53 -80 94 -148 92 -150 -2 -3
-90 -3 -195 -2 l-191 3 95 148 c53 81 97 147 99 147 2 0 46 -66 100 -146z
m-1315 -681 c-1 -318 -4 -482 -10 -471 -11 18 -410 947 -410 954 0 2 94 4 210
4 l210 0 0 -487z m455 468 c-3 -10 -98 -232 -210 -492 l-204 -474 -1 493 0
492 211 0 c202 0 210 -1 204 -19z m505 -468 c0 -282 -4 -482 -9 -473 -11 18
-411 949 -411 955 0 3 95 5 210 5 l210 0 0 -487z m460 481 c0 -5 -335 -789
-406 -949 -11 -25 -13 45 -14 463 l0 492 210 0 c116 0 210 -3 210 -6z"/>
<path d="M22 1307 c-12 -13 -22 -36 -22 -51 0 -26 464 -1123 496 -1174 19 -30
106 -32 126 -3 7 10 103 228 213 485 110 256 202 466 205 466 3 0 97 -214 209
-474 112 -261 209 -480 214 -485 6 -6 32 -11 59 -11 38 0 50 4 62 23 35 54
496 1143 496 1172 0 69 -91 104 -137 53 -11 -13 -109 -231 -218 -485 -109
-255 -201 -463 -205 -463 -3 0 -96 208 -204 463 -109 254 -207 472 -219 485
-14 15 -32 22 -57 22 -25 0 -43 -7 -57 -22 -11 -13 -109 -231 -218 -485 -109
-255 -201 -463 -205 -463 -4 0 -96 208 -204 463 -109 254 -207 472 -219 485
-28 30 -86 30 -115 -1z"/>
</g>
</svg>
