<?xml version="1.0" encoding="utf-8"?>
<!-- Generator: Adobe Illustrator 16.0.0, SVG Export Plug-In . SVG Version: 6.00 Build 0)  -->
<!DOCTYPE svg PUBLIC "-//W3C//DTD SVG 1.1//EN" "http://www.w3.org/Graphics/SVG/1.1/DTD/svg11.dtd">
<svg version="1.1" id="Layer_1" xmlns="http://www.w3.org/2000/svg" xmlns:xlink="http://www.w3.org/1999/xlink" x="0px" y="0px"
	 width="500px" height="500px" viewBox="0 0 500 500" enable-background="new 0 0 500 500" xml:space="preserve">
<g>
	<g>
		<path fill-rule="evenodd" clip-rule="evenodd" fill="#FFFFFF" d="M11.361,495.807c0-163.079,0-326.158,0-489.237
			c159.662,0,319.323,0,478.985,0c0,163.079,0,326.158,0,489.237C330.686,495.807,171.023,495.807,11.361,495.807z M325.28,115.13
			c-2.789,1.593-5.114,2.859-7.379,4.224c-16.526,9.961-33.036,19.95-49.562,29.913c-10.854,6.545-21.703,13.101-32.614,19.552
			c-1.785,1.055-1.898,1.817-0.766,3.5c2.056,3.055,3.808,6.314,5.706,9.477c9.053,15.078,18.127,30.143,27.167,45.229
			c9.767,16.303,19.477,32.64,29.259,48.934c11.779,19.621,23.626,39.202,35.409,58.821c10.128,16.864,20.236,33.74,30.264,50.665
			c0.969,1.635,2.017,2.119,3.826,2.117c39.478-0.054,78.956-0.049,118.434-0.056c1.008,0,2.015,0,3.792,0
			C434.124,296.415,379.782,205.906,325.28,115.13z M320.474,387.528c-35.381-58.947-70.358-117.222-105.438-175.667
			c-9.015,5.492-17.536,10.723-26.095,15.89c-21.052,12.707-42.094,25.432-63.229,38c-2.061,1.225-1.904,2.08-0.918,3.707
			c5.579,9.208,11.124,18.438,16.671,27.665c9.112,15.157,18.223,30.314,27.326,45.477c8.519,14.188,17.045,28.373,25.515,42.592
			c1.02,1.712,2.183,2.382,4.269,2.377c32.45-0.075,64.899-0.045,97.348-0.04C303.79,387.529,311.657,387.528,320.474,387.528z
			 M104.964,308.982c-1.799,1.006-3.216,1.746-4.583,2.569c-16.513,9.948-33.013,19.919-49.529,29.863
			c-11.817,7.115-23.631,14.238-35.505,21.26c-1.781,1.053-1.851,1.801-0.795,3.499c3.943,6.341,7.727,12.783,11.511,19.222
			c0.898,1.527,1.935,2.168,3.832,2.165c39.741-0.064,79.481-0.041,119.222-0.043c0.721,0,1.441-0.095,2.885-0.198
			C136.169,360.951,120.589,335.004,104.964,308.982z"/>
		<path fill-rule="evenodd" clip-rule="evenodd" d="M325.28,115.13c54.502,90.776,108.844,181.285,163.535,272.377
			c-1.777,0-2.784,0-3.792,0c-39.478,0.007-78.956,0.002-118.434,0.056c-1.81,0.002-2.857-0.482-3.826-2.117
			c-10.027-16.925-20.136-33.801-30.264-50.665c-11.783-19.619-23.63-39.2-35.409-58.821c-9.782-16.294-19.492-32.631-29.259-48.934
			c-9.039-15.087-18.113-30.152-27.167-45.229c-1.898-3.163-3.65-6.422-5.706-9.477c-1.132-1.682-1.019-2.445,0.766-3.5
			c10.911-6.451,21.76-13.007,32.614-19.552c16.525-9.963,33.035-19.952,49.562-29.913
			C320.166,117.989,322.491,116.723,325.28,115.13z"/>
		<path fill-rule="evenodd" clip-rule="evenodd" d="M320.474,387.528c-8.816,0-16.684,0.001-24.551,0
			c-32.449-0.005-64.898-0.035-97.348,0.04c-2.086,0.005-3.249-0.665-4.269-2.377c-8.47-14.219-16.996-28.403-25.515-42.592
			c-9.103-15.162-18.213-30.319-27.326-45.477c-5.548-9.228-11.092-18.457-16.671-27.665c-0.986-1.627-1.143-2.482,0.918-3.707
			c21.135-12.567,42.177-25.292,63.229-38c8.56-5.167,17.08-10.397,26.095-15.89C250.116,270.307,285.093,328.581,320.474,387.528z"
			/>
		<path fill-rule="evenodd" clip-rule="evenodd" d="M104.964,308.982c15.625,26.021,31.205,51.969,47.038,78.337
			c-1.444,0.104-2.165,0.198-2.885,0.198c-39.741,0.002-79.481-0.021-119.222,0.043c-1.897,0.003-2.934-0.638-3.832-2.165
			c-3.784-6.438-7.567-12.881-11.511-19.222c-1.056-1.698-0.986-2.446,0.795-3.499c11.874-7.021,23.688-14.145,35.505-21.26
			c16.516-9.944,33.016-19.915,49.529-29.863C101.748,310.729,103.165,309.988,104.964,308.982z"/>
	</g>
</g>
</svg>
