<?xml version="1.0" standalone="no"?>
<!DOCTYPE svg PUBLIC "-//W3C//DTD SVG 20010904//EN"
 "http://www.w3.org/TR/2001/REC-SVG-20010904/DTD/svg10.dtd">
<svg version="1.0" xmlns="http://www.w3.org/2000/svg"
 width="256.000000pt" height="256.000000pt" viewBox="0 0 256.000000 256.000000"
 preserveAspectRatio="xMidYMid meet">
<metadata>
Created by potrace 1.11, written by Peter Selinger 2001-2013
</metadata>
<g transform="translate(0.000000,256.000000) scale(0.100000,-0.100000)"
fill="#000000" stroke="none">
<path d="M132 2078 l3 -163 96 -5 c82 -4 101 -9 136 -32 40 -26 95 -99 130
-172 l18 -39 -25 -16 c-51 -32 -158 -143 -183 -189 -14 -26 -31 -68 -37 -94
-12 -46 -11 -50 21 -110 34 -63 34 -63 35 -208 1 -155 10 -192 56 -224 77 -54
264 44 284 148 3 20 12 36 19 36 7 0 37 -16 66 -36 70 -47 104 -64 126 -64 13
0 54 -69 158 -268 l140 -267 131 -3 131 -3 124 270 123 269 37 5 c20 3 63 23
95 44 89 60 98 61 113 13 36 -121 210 -202 290 -135 43 37 51 74 48 215 -2
124 -2 126 32 194 39 82 38 126 -6 209 -33 61 -129 160 -195 202 -27 17 -48
34 -48 39 0 21 94 158 123 180 39 30 101 45 185 46 l62 0 0 160 0 160 -1145 0
-1145 0 2 -162z m1236 1 l3 -76 -58 -7 c-70 -8 -120 -36 -129 -71 -4 -15 -4
-46 -1 -71 4 -41 3 -44 -18 -44 -27 0 -35 17 -35 73 0 84 51 140 142 155 39 7
43 10 46 40 l3 32 -525 0 -526 0 0 -35 c0 -33 2 -35 34 -35 97 0 179 -80 291
-284 31 -55 35 -70 24 -77 -25 -16 -35 -10 -58 39 -38 79 -130 210 -167 238
-23 18 -56 30 -104 37 l-70 11 0 78 0 78 573 -2 572 -3 3 -76z m972 2 l0 -78
-63 -5 c-115 -10 -190 -68 -271 -211 -25 -45 -47 -85 -48 -89 -2 -4 -13 -5
-26 -1 -28 7 -26 11 31 112 81 143 170 217 285 236 38 6 42 9 42 36 l0 29
-360 0 -360 0 0 -30 c0 -24 5 -31 25 -35 14 -3 37 -8 53 -11 48 -10 109 -52
126 -88 18 -39 21 -94 5 -149 -8 -31 -14 -38 -32 -35 -16 2 -21 9 -19 23 12
76 13 125 3 144 -17 31 -82 60 -151 68 l-60 6 0 78 0 79 410 0 410 0 0 -79z
m-1750 -30 c0 -14 -37 -20 -49 -8 -8 8 -11 8 -11 0 0 -6 -6 -13 -12 -16 -7 -2
-5 -3 5 -1 9 1 26 -9 36 -22 10 -13 23 -24 28 -24 6 0 18 -8 27 -19 16 -18 16
-19 -8 -23 -32 -6 -75 20 -55 33 11 6 9 9 -7 9 -11 0 -24 3 -28 7 -3 4 -13 8
-21 9 -19 3 -105 46 -111 56 -3 4 42 8 100 8 58 0 106 -4 106 -9z m93 -21 l32
-30 -31 0 c-21 0 -39 9 -59 30 l-29 30 28 0 c16 0 40 -12 59 -30z m179 12 c11
-13 9 -14 -17 -9 -16 4 -49 8 -72 10 l-42 3 32 -27 c18 -16 43 -37 57 -48 l25
-20 -25 -1 c-35 0 -77 29 -59 41 10 6 6 9 -12 9 -15 0 -37 12 -54 30 l-29 30
92 -1 c70 -1 94 -5 104 -17z m175 -19 c29 -26 32 -31 13 -22 -14 7 -36 19 -48
27 -30 19 -92 28 -75 11 7 -7 24 -13 38 -15 27 -3 90 -43 81 -51 -3 -3 -21 4
-41 16 -20 12 -41 18 -47 15 -6 -4 -8 -3 -5 3 4 6 -3 9 -16 6 -13 -2 -34 6
-52 20 l-29 24 72 0 c68 0 74 -2 109 -34z m38 17 c10 -11 15 -20 11 -20 -10 0
-66 30 -66 35 0 13 39 2 55 -15z m59 11 c-2 -2 2 -11 8 -20 11 -14 10 -14 -7
0 -11 9 -25 14 -32 12 -6 -2 -14 0 -17 5 -3 5 7 9 23 8 16 0 28 -3 25 -5z m36
-6 c7 -9 8 -15 2 -15 -5 0 -12 7 -16 15 -3 8 -4 15 -2 15 2 0 9 -7 16 -15z
m30 5 c0 -5 -2 -10 -4 -10 -3 0 -8 5 -11 10 -3 6 -1 10 4 10 6 0 11 -4 11 -10z
m660 6 c0 -2 -7 -7 -16 -10 -8 -3 -12 -2 -9 4 6 10 25 14 25 6z m45 -6 c-3 -5
-16 -15 -28 -21 -22 -12 -22 -12 -3 10 19 21 43 30 31 11z m105 0 c-19 -13
-30 -13 -30 0 0 6 10 10 23 10 18 0 19 -2 7 -10z m-1350 -65 l34 -35 -31 0
c-17 0 -36 7 -43 15 -7 8 -9 15 -4 15 5 0 -6 8 -23 16 -37 18 -42 31 -15 37
23 5 40 -5 82 -48z m1275 45 c-7 -12 -65 -43 -65 -35 0 5 61 45 68 45 2 0 0
-5 -3 -10z m-1105 -15 c14 -17 35 -21 25 -5 -8 13 7 13 42 -1 15 -7 38 -13 51
-15 25 -3 96 -44 88 -51 -2 -2 -23 5 -46 16 -24 11 -47 18 -52 15 -5 -3 14
-17 43 -30 28 -14 49 -27 46 -30 -3 -3 -26 3 -51 14 -25 11 -54 18 -64 15 -11
-2 -35 3 -53 13 -31 17 -32 19 -12 22 12 2 33 -4 46 -12 21 -14 24 -14 24 -1
0 8 -8 15 -18 15 -10 0 -20 4 -23 8 -3 5 -18 7 -33 5 -19 -3 -37 2 -53 16
l-25 20 26 1 c15 0 32 -7 39 -15z m295 -5 c10 -11 16 -20 13 -20 -3 0 -13 9
-23 20 -10 11 -16 20 -13 20 3 0 13 -9 23 -20z m895 16 c0 -2 -8 -10 -17 -17
-16 -13 -17 -12 -4 4 13 16 21 21 21 13z m-60 -21 c0 -2 -13 -11 -30 -20 -38
-19 -40 -11 -2 9 31 17 32 18 32 11z m-840 -27 c0 -6 -6 -5 -15 2 -8 7 -15 14
-15 16 0 2 7 1 15 -2 8 -4 15 -11 15 -16z m-341 -28 c50 -38 51 -40 25 -40
-26 0 -123 57 -124 73 0 20 51 3 99 -33z m327 2 c-4 -3 -14 2 -24 12 -16 18
-16 18 6 6 13 -6 21 -14 18 -18z m3 -28 c14 -12 -19 -1 -35 12 -18 14 -18 14
6 3 14 -6 27 -13 29 -15z m-374 2 c19 -15 19 -15 -8 -16 -16 0 -38 5 -50 12
-20 10 -21 9 -9 -5 11 -13 10 -16 -10 -19 -13 -2 -34 3 -48 12 -23 14 -24 14
-11 -3 9 -11 10 -17 2 -17 -6 0 -11 5 -11 10 0 6 0 13 -1 18 -1 20 120 27 146
8z m185 1 c40 -4 107 -36 77 -37 -10 0 -34 7 -54 15 -19 8 -37 15 -39 15 -2 0
-1 -7 2 -15 4 -8 16 -15 28 -15 11 -1 32 -8 46 -16 25 -15 24 -15 -15 -9 -22
4 -60 8 -85 9 -25 1 -54 6 -65 10 -16 6 -17 6 -5 -3 21 -15 -44 -15 -73 1 -20
10 -21 10 -8 -5 12 -15 10 -17 -13 -17 -15 0 -37 5 -49 12 -20 10 -21 9 -9 -5
11 -13 11 -16 0 -20 -7 -2 -5 -3 6 -1 27 4 70 -17 54 -28 -23 -14 -46 -9 -77
18 -17 14 -31 29 -31 33 0 23 228 38 271 18 11 -5 16 -3 16 8 0 8 -9 15 -21
15 -12 1 -32 7 -46 16 -25 15 -24 15 15 10 22 -3 56 -7 75 -9z m180 -33 c0 -2
-13 2 -30 11 -16 9 -30 18 -30 21 0 2 14 -2 30 -11 17 -9 30 -18 30 -21z m-17
-11 c9 -3 17 -9 17 -14 0 -5 -15 -2 -32 7 -39 19 -51 30 -23 19 11 -4 28 -10
38 -12z m-8 -28 c39 -17 21 -18 -25 0 -19 7 -28 14 -20 14 8 0 29 -6 45 -14z
m-110 -11 l30 -14 -40 4 c-22 2 -49 7 -60 11 -20 7 -20 6 -1 -9 11 -9 29 -16
40 -17 12 0 30 -5 41 -10 14 -7 4 -8 -35 -5 -30 2 -65 0 -78 -5 -15 -6 -33 -4
-55 6 l-32 15 53 -4 c54 -3 72 8 25 16 -16 3 -37 8 -48 13 -14 5 -16 4 -7 -3
22 -15 -24 -22 -61 -10 -27 10 -28 12 -12 18 37 13 209 9 240 -6z m114 -15
c48 -17 32 -20 -19 -4 -25 7 -38 14 -29 14 9 1 30 -4 48 -10z m-33 -27 c-10
-2 -22 0 -28 6 -6 6 0 7 19 4 21 -5 23 -7 9 -10z m-317 -23 c3 0 -5 -4 -17
-10 -27 -10 -38 -6 -52 22 -11 19 -10 19 26 4 20 -8 39 -15 43 -16z m60 22
c11 -7 9 -10 -7 -15 -24 -8 -72 2 -72 15 0 12 61 11 79 0z m139 -18 c-10 -2
-28 -2 -40 0 -13 2 -5 4 17 4 22 1 32 -1 23 -4z m508 -3 c308 -25 527 -99 697
-237 51 -41 65 -58 58 -67 -8 -9 -6 -18 3 -32 10 -13 11 -23 4 -32 -8 -9 -6
-18 8 -35 12 -13 13 -17 3 -9 -9 6 -20 8 -24 4 -5 -4 -5 -2 -2 4 4 7 0 17 -7
23 -22 18 -15 -8 12 -46 17 -24 19 -33 10 -40 -20 -12 -37 -12 -45 -1 -4 7 -1
8 7 3 9 -6 11 -4 5 5 -6 9 -4 11 5 5 9 -6 11 -4 5 5 -6 9 -4 11 5 5 9 -5 11
-4 6 4 -6 8 -12 9 -20 2 -7 -6 -17 -7 -21 -3 -5 4 -4 1 0 -7 6 -11 4 -13 -11
-8 -18 7 -18 6 -1 -7 17 -14 24 -32 8 -22 -8 5 -8 -15 -1 -34 1 -3 2 -8 2 -12
-1 -3 4 -11 12 -17 9 -8 13 -7 13 4 0 8 -5 11 -11 8 -6 -3 -8 -3 -4 2 4 4 2
15 -4 24 -9 11 -6 10 9 -2 13 -12 20 -27 17 -40 -2 -11 2 -28 9 -36 10 -14 10
-14 -4 -4 -20 16 -32 5 -17 -16 10 -13 10 -14 -2 -4 -17 16 -23 46 -7 36 7 -3
9 -3 5 1 -3 4 -10 8 -15 8 -4 0 -15 5 -23 11 -8 6 -6 1 5 -12 16 -20 17 -23 4
-18 -13 4 -10 -4 9 -35 15 -22 27 -45 27 -51 0 -7 11 -31 23 -55 30 -56 33
-133 7 -162 -24 -27 -79 -26 -135 3 -42 20 -90 75 -90 101 0 6 12 -8 26 -32
14 -23 38 -49 54 -57 33 -17 65 -21 40 -5 -11 7 -5 9 20 5 l35 -5 -35 14 -35
14 40 3 40 2 -35 7 c-30 6 -31 8 -8 9 19 1 25 6 24 19 -2 9 2 20 8 24 7 5 7 8
-3 8 -11 0 -11 3 0 17 12 14 12 16 0 8 -11 -6 -13 -4 -8 8 3 9 1 18 -6 21 -7
3 -3 5 8 3 25 -3 58 -66 43 -85 -7 -8 -7 -12 0 -12 11 0 11 -18 -1 -37 -4 -6
-3 -14 3 -18 18 -11 29 40 19 86 -35 153 -220 270 -523 331 -98 20 -142 23
-376 23 -215 0 -284 -4 -365 -19 -267 -49 -455 -150 -519 -278 -26 -52 -35
-128 -15 -128 5 0 8 -4 4 -9 -3 -5 0 -13 6 -17 8 -4 9 -3 5 4 -4 7 -2 12 4 12
7 0 8 5 3 13 -4 6 -8 19 -8 27 0 8 -4 21 -8 27 -6 9 -3 11 10 6 14 -5 16 -3 6
7 -18 20 11 70 40 69 16 0 18 -2 7 -7 -17 -8 -22 -82 -6 -82 6 0 4 -5 -4 -11
-12 -8 -9 -10 12 -6 16 2 28 1 28 -4 0 -4 -12 -10 -27 -12 -25 -3 -24 -4 7 -6
l35 -2 -30 -14 -30 -15 35 5 35 4 -40 -14 -40 -15 40 5 c28 3 35 2 25 -5 -8
-5 -34 -10 -57 -10 -35 0 -46 5 -59 25 -24 36 -13 125 20 176 29 43 32 54 14
43 -9 -5 -9 -3 1 9 7 9 17 15 21 12 5 -3 11 -1 14 4 4 5 1 13 -4 16 -8 5 -5
14 7 28 l18 22 -22 -19 c-13 -10 -21 -22 -18 -26 2 -4 -2 -7 -10 -7 -10 0 -11
5 -4 19 9 17 5 22 -15 19 -5 -1 -4 5 3 13 14 16 36 12 26 -5 -11 -17 2 -9 21
13 15 19 16 20 1 9 -16 -12 -22 -8 -18 13 1 5 -5 6 -13 3 -9 -4 -13 0 -11 11
2 9 4 18 5 20 2 1 3 11 4 21 0 11 4 22 7 25 9 10 4 -37 -6 -54 -7 -13 -6 -13
7 -2 9 7 15 21 13 30 -1 9 2 24 8 32 6 8 8 12 3 8 -10 -8 -51 11 -42 19 3 3 1
13 -4 23 -5 10 -6 20 -3 24 4 4 8 13 9 21 2 11 -5 14 -23 11 -18 -4 -22 -2
-15 7 5 7 8 20 7 29 -2 11 18 37 51 67 161 148 403 229 754 254 94 7 110 7
236 -3z m-581 -10 c-3 -5 -19 -10 -35 -10 -16 0 -32 -5 -36 -11 -4 -7 -22 -9
-47 -6 -26 4 -36 2 -27 -3 8 -5 11 -12 7 -16 -4 -4 -13 -2 -19 4 -19 19 7 37
52 36 22 -1 37 2 34 7 -3 5 13 9 36 9 25 0 39 -4 35 -10z m-458 -392 c-24 -33
-32 -37 -17 -8 6 11 8 20 5 20 -4 0 -4 4 -1 8 3 5 12 9 20 9 11 0 9 -7 -7 -29z
m20 -25 c-4 -3 -2 -12 4 -19 10 -12 7 -12 -30 -5 -5 1 20 31 27 31 3 0 2 -3
-1 -7z m1038 -73 c10 -22 22 -40 26 -40 4 0 13 16 19 35 10 29 16 35 40 35
l29 0 -41 -92 c-22 -51 -42 -95 -44 -97 -1 -2 -26 42 -53 98 l-51 101 28 0
c24 0 32 -7 47 -40z m-405 -385 l202 -385 53 0 52 0 176 383 c160 347 178 382
201 385 15 2 26 1 26 -2 0 -5 -310 -684 -356 -778 l-18 -38 -81 0 -81 0 -212
402 c-215 411 -216 412 -170 417 3 1 97 -172 208 -384z m110 381 c0 -2 -7 -9
-15 -16 -13 -11 -14 -10 -9 4 5 14 24 23 24 12z m-390 -35 c0 -9 -101 -34
-108 -26 -3 3 2 5 11 5 10 0 17 4 17 9 0 9 61 30 73 24 4 -2 7 -8 7 -12z
m1091 7 c22 -6 39 -15 39 -19 0 -4 6 -9 13 -12 6 -2 -1 -2 -18 1 -16 2 -43 10
-59 18 -33 16 -48 18 -26 4 9 -6 10 -10 3 -10 -15 0 -25 15 -16 24 9 9 20 8
64 -6z m-1198 -55 c-7 -2 -19 -2 -25 0 -7 3 -2 5 12 5 14 0 19 -2 13 -5z
m1290 0 c-7 -2 -19 -2 -25 0 -7 3 -2 5 12 5 14 0 19 -2 13 -5z m-1196 -50 l35
-36 -22 -17 -22 -17 50 -36 c45 -33 80 -67 71 -67 -3 0 -31 20 -64 45 -75 56
-145 80 -208 71 -45 -7 -97 -38 -97 -58 0 -6 6 -5 15 2 9 7 18 10 22 6 3 -3 0
-6 -8 -6 -11 0 -11 -2 1 -10 12 -8 12 -10 1 -10 -8 0 -11 -3 -8 -7 4 -3 1 -13
-6 -21 -10 -13 -9 -14 10 -3 22 11 47 46 48 66 0 15 38 12 43 -4 3 -8 0 -11
-6 -7 -6 3 -29 -12 -51 -34 -36 -36 -42 -39 -61 -28 -27 17 -25 50 5 78 13 12
22 27 19 31 -8 14 39 33 101 40 l60 7 -67 -2 c-37 -1 -62 2 -55 6 6 4 37 9 67
10 l55 1 -60 7 -60 7 60 3 c58 3 59 3 20 10 -38 7 -37 7 19 9 55 1 61 -1 93
-36z m1188 27 c-39 -7 -38 -7 20 -10 l60 -3 -60 -7 -60 -7 60 -3 60 -3 -55 -7
-55 -7 45 -2 c25 0 56 -4 70 -7 20 -5 22 -4 10 6 -12 9 -12 11 -1 8 8 -2 15
-11 17 -20 2 -14 -2 -15 -23 -7 -13 5 -45 8 -71 8 l-47 -2 57 -7 c66 -8 120
-38 137 -77 11 -24 10 -29 -9 -45 -26 -21 -42 -15 -75 27 -16 22 -31 32 -40
28 -11 -4 -13 -1 -9 11 9 23 33 20 43 -6 5 -13 21 -34 37 -48 15 -14 23 -18
18 -10 -12 20 -12 53 -1 61 6 4 -3 15 -19 25 -60 40 -188 17 -259 -46 -11 -9
-33 -25 -50 -35 l-30 -17 30 26 c17 14 29 32 27 40 -1 8 5 16 13 20 9 3 14 10
10 15 -3 5 -1 12 5 16 6 4 8 10 5 14 -2 5 11 25 31 45 33 34 39 36 92 35 55
-2 56 -2 17 -9z m72 4 c-3 -3 -12 -4 -19 -1 -8 3 -5 6 6 6 11 1 17 -2 13 -5z
m-1211 -96 c5 -8 1 -9 -12 -4 -12 4 -8 -3 11 -20 25 -22 26 -24 5 -12 -55 32
-53 30 -39 39 19 12 27 11 35 -3z m-194 -115 c-6 -10 -23 -29 -38 -43 -25 -22
-25 -21 4 13 18 21 32 43 32 49 0 6 3 9 6 6 3 -4 1 -15 -4 -25z"/>
<path d="M462 2030 c7 -11 19 -22 28 -25 8 -4 4 5 -9 19 -29 31 -36 33 -19 6z"/>
<path d="M1228 1763 c7 -3 16 -2 19 1 4 3 -2 6 -13 5 -11 0 -14 -3 -6 -6z"/>
<path d="M1348 1763 c7 -3 16 -2 19 1 4 3 -2 6 -13 5 -11 0 -14 -3 -6 -6z"/>
<path d="M1068 1753 c6 -2 18 -2 25 0 6 3 1 5 -13 5 -14 0 -19 -2 -12 -5z"/>
<path d="M1508 1753 c7 -3 16 -2 19 1 4 3 -2 6 -13 5 -11 0 -14 -3 -6 -6z"/>
<path d="M1588 1743 c7 -3 16 -2 19 1 4 3 -2 6 -13 5 -11 0 -14 -3 -6 -6z"/>
<path d="M938 1733 c7 -3 16 -2 19 1 4 3 -2 6 -13 5 -11 0 -14 -3 -6 -6z"/>
<path d="M1638 1733 c7 -3 16 -2 19 1 4 3 -2 6 -13 5 -11 0 -14 -3 -6 -6z"/>
<path d="M1150 1723 c-159 -12 -391 -63 -472 -104 -46 -23 -48 -35 -8 -42 l30
-6 0 -92 c0 -87 -1 -92 -30 -121 -25 -25 -38 -48 -27 -48 2 0 40 13 85 30 45
16 111 37 147 46 68 17 87 40 35 42 -42 1 -50 9 -50 48 0 37 10 43 30 19 23
-28 30 -15 30 51 l0 66 34 -26 c19 -14 37 -26 40 -26 3 0 6 27 6 60 0 53 2 60
20 60 11 0 20 5 20 12 0 6 9 3 20 -7 11 -10 20 -23 20 -29 0 -6 -5 -3 -11 7
-5 9 -15 17 -21 17 -9 0 -9 -3 0 -12 8 -8 12 -46 12 -105 0 -94 0 -94 -30
-111 -53 -30 -37 -38 63 -29 187 17 203 21 155 42 -32 14 -48 52 -48 117 0 70
12 104 41 113 30 10 41 -4 103 -140 l55 -120 49 -3 48 -3 44 106 c48 116 71
146 98 128 33 -20 42 -204 11 -224 -8 -5 -22 -6 -31 -3 -12 3 -18 0 -18 -9 0
-10 20 -18 59 -26 32 -6 105 -27 162 -46 57 -19 107 -35 111 -35 4 0 8 34 8
76 0 82 1 81 -54 59 -17 -8 -18 -4 -14 54 4 61 4 62 -34 96 -21 19 -32 35 -25
35 8 0 32 -21 54 -47 49 -60 64 -85 35 -59 -12 11 -22 15 -22 9 0 -11 42 -53
53 -53 4 0 7 27 7 59 l0 59 -68 26 c-186 71 -479 107 -722 89z m207 -142 c31
-64 60 -119 67 -123 7 -5 5 -8 -6 -8 -10 0 -18 6 -19 13 0 6 -26 65 -57 129
-31 64 -53 114 -48 111 5 -3 33 -58 63 -122z m193 88 c15 -28 5 -23 -15 7 -9
15 -12 23 -6 20 6 -4 16 -16 21 -27z m-26 0 c13 -19 13 -27 -5 -73 -11 -28
-24 -54 -28 -58 -3 -4 -19 22 -35 57 -23 53 -26 68 -16 80 19 22 66 19 84 -6z
m155 -23 c-3 -3 -11 5 -18 17 -13 21 -12 21 5 5 10 -10 16 -20 13 -22z m-745
-17 c27 -16 46 -32 43 -36 -3 -3 -21 6 -39 20 -18 13 -46 29 -63 35 -23 8 -25
11 -9 11 11 1 42 -13 68 -30z m-29 -9 c2 -4 -7 -18 -20 -30 l-25 -23 0 35 c0
31 3 35 20 31 11 -3 22 -9 25 -13z m928 -24 c12 -17 13 -26 4 -35 -22 -22 -37
-12 -37 24 0 41 11 45 33 11z m-1123 -11 c20 -25 6 -31 -17 -7 -14 14 -18 22
-9 22 8 0 19 -7 26 -15z m196 -76 c4 -8 1 -8 -14 0 -12 6 -24 16 -28 22 -4 8
-1 8 14 0 12 -6 24 -16 28 -22z m935 -22 c12 -22 12 -22 -10 -3 -11 11 -21 23
-21 28 0 14 19 -1 31 -25z m-5 -63 c-30 -22 -36 -17 -36 28 l0 43 28 -28 c26
-27 27 -28 8 -43z m-613 29 c-7 -2 -21 -2 -30 0 -10 3 -4 5 12 5 17 0 24 -2
18 -5z m-64 -7 c-2 -2 -31 -6 -64 -9 -36 -3 -52 -2 -40 3 19 8 113 14 104 6z
m324 -3 c-7 -2 -21 -2 -30 0 -10 3 -4 5 12 5 17 0 24 -2 18 -5z m277 -43 c93
-26 162 -51 155 -58 -2 -3 -26 3 -51 13 -26 10 -84 28 -128 41 -45 12 -74 23
-66 23 9 1 49 -8 90 -19z m-970 -25 c-57 -19 -106 -33 -108 -31 -5 6 170 64
193 65 11 0 -27 -15 -85 -34z"/>
<path d="M409 1488 c-1 -2 -2 -15 -3 -31 -3 -26 -2 -26 16 -11 21 20 23 25 6
22 -7 -2 -12 3 -10 10 2 10 -6 18 -9 10z"/>
<path d="M2158 1459 c6 -9 10 -18 7 -21 -3 -3 1 -11 9 -17 27 -22 26 6 -2 30
-14 13 -21 17 -14 8z"/>
<path d="M975 1361 c-102 -19 -228 -51 -222 -57 2 -2 46 7 98 20 85 22 210 41
314 49 22 2 11 4 -25 5 -36 0 -110 -8 -165 -17z"/>
<path d="M1480 1370 c80 -7 157 -21 310 -55 l25 -6 -25 11 c-50 22 -207 50
-305 55 l-100 4 95 -9z"/>
<path d="M2130 1135 c13 -14 26 -25 28 -25 3 0 -5 11 -18 25 -13 14 -26 25
-28 25 -3 0 5 -11 18 -25z"/>
<path d="M2108 883 c6 -2 18 -2 25 0 6 3 1 5 -13 5 -14 0 -19 -2 -12 -5z"/>
<path d="M555 1094 c-16 -8 -21 -11 -10 -8 11 4 47 10 80 14 l60 7 -50 1 c-27
1 -63 -6 -80 -14z"/>
<path d="M1810 1080 c-12 -8 -12 -10 -1 -10 8 0 4 -8 -10 -21 -19 -16 -20 -18
-4 -10 11 5 29 17 40 25 19 15 19 16 1 9 -13 -4 -17 -3 -12 5 9 14 6 15 -14 2z"/>
<path d="M2080 1030 c0 -5 5 -10 11 -10 5 0 7 5 4 10 -3 6 -8 10 -11 10 -2 0
-4 -4 -4 -10z"/>
</g>
</svg>
