<?xml version="1.0" standalone="no"?>
<!DOCTYPE svg PUBLIC "-//W3C//DTD SVG 20010904//EN"
 "http://www.w3.org/TR/2001/REC-SVG-20010904/DTD/svg10.dtd">
<svg version="1.0" xmlns="http://www.w3.org/2000/svg"
 width="392.000000pt" height="392.000000pt" viewBox="0 0 392.000000 392.000000"
 preserveAspectRatio="xMidYMid meet">
<metadata>
Created by potrace 1.11, written by Peter Selinger 2001-2013
</metadata>
<g transform="translate(0.000000,392.000000) scale(0.100000,-0.100000)"
fill="#000000" stroke="none">
<path d="M1324 3723 c4 -65 11 -197 16 -293 9 -184 10 -187 43 -290 70 -221
246 -383 505 -466 47 -15 53 -19 47 -38 -16 -54 -36 -157 -42 -218 -5 -58 -9
-68 -25 -68 -10 0 -27 -4 -38 -10 -11 -5 -29 -14 -40 -20 -11 -5 -27 -10 -35
-10 -8 0 -15 -4 -15 -10 0 -5 -5 -10 -11 -10 -41 0 -229 -176 -269 -252 -23
-45 -40 -61 -40 -38 0 6 -9 10 -20 10 -11 0 -20 5 -20 10 0 6 -11 10 -25 10
-14 0 -25 5 -25 10 0 6 -13 10 -30 10 -16 0 -30 5 -30 10 0 6 -20 10 -45 10
-25 0 -45 4 -45 9 0 10 -105 18 -372 27 -94 3 -168 9 -168 15 0 5 -20 9 -44 9
-25 0 -48 4 -51 10 -3 6 -19 10 -35 10 -16 0 -32 5 -35 10 -3 6 -18 10 -32 10
-20 0 -24 -4 -18 -17 36 -89 44 -169 55 -558 5 -181 14 -357 19 -390 6 -33 13
-77 17 -97 3 -21 10 -38 15 -38 5 0 9 -7 9 -15 0 -19 37 -94 58 -117 8 -10 12
-18 8 -18 -3 0 23 -29 59 -65 35 -36 69 -65 75 -65 5 0 10 -4 10 -10 0 -5 7
-10 15 -10 8 0 15 -4 15 -8 0 -5 16 -14 35 -22 19 -8 35 -17 35 -22 0 -4 9 -8
19 -8 11 0 23 -4 26 -10 3 -5 17 -10 31 -10 13 0 24 -4 24 -10 0 -5 13 -10 29
-10 17 0 33 -4 36 -10 3 -5 26 -10 51 -10 24 0 44 -4 44 -10 0 -6 28 -10 64
-10 36 0 68 -5 71 -10 3 -6 48 -10 101 -10 56 0 94 -4 94 -10 0 -6 31 -10 74
-10 41 0 78 -4 81 -10 3 -5 19 -10 35 -10 16 0 32 -4 35 -10 3 -5 17 -10 31
-10 13 0 24 -4 24 -10 0 -5 14 -10 30 -10 17 0 30 -4 30 -10 0 -5 9 -10 20
-10 20 0 20 7 20 339 0 261 3 342 13 348 6 4 39 11 72 15 81 9 112 16 162 39
24 10 50 19 58 19 8 0 15 4 15 9 0 5 8 11 17 14 74 24 212 153 263 247 14 25
28 47 33 48 4 2 7 10 7 18 0 8 9 32 19 52 41 80 67 287 71 565 0 4 4 7 10 7
28 0 124 98 154 159 55 108 67 170 96 511 6 69 13 146 16 173 l6 48 -44 -7
c-23 -3 -52 -9 -63 -13 -33 -13 -114 -31 -140 -31 -14 0 -25 -4 -25 -10 0 -5
-11 -10 -24 -10 -12 0 -36 -4 -52 -9 -16 -5 -43 -12 -61 -15 -31 -5 -31 -5
-38 47 -14 97 -67 234 -129 331 -60 94 -135 158 -260 225 -104 55 -196 85
-521 170 -38 11 -77 21 -85 24 -8 3 -28 8 -44 12 l-29 6 7 -118z"/>
<path d="M3480 1840 c0 -5 -11 -10 -24 -10 -14 0 -28 -4 -31 -10 -3 -5 -19
-10 -36 -10 -16 0 -29 -4 -29 -10 0 -5 -15 -10 -34 -10 -19 0 -38 -4 -41 -10
-3 -5 -28 -10 -55 -10 -27 0 -52 -4 -55 -10 -3 -5 -26 -10 -50 -10 -24 0 -47
-4 -50 -10 -3 -5 -24 -10 -45 -10 -21 0 -42 -4 -45 -10 -3 -5 -17 -10 -31 -10
-13 0 -24 -4 -24 -10 0 -5 -7 -10 -15 -10 -8 0 -15 -4 -15 -10 0 -5 -6 -10
-13 -10 -16 0 -93 -72 -123 -116 -12 -17 -36 -59 -54 -95 l-33 -64 -9 -248
c-4 -137 -13 -257 -18 -267 -6 -10 -10 -30 -10 -43 0 -25 -33 -47 -70 -47 -10
0 -29 -4 -42 -9 -13 -5 -63 -14 -113 -21 -107 -13 -189 -28 -230 -42 -57 -20
-85 -33 -85 -40 0 -5 -5 -8 -12 -8 -10 0 -64 -53 -93 -91 -30 -39 -55 -129
-60 -214 -2 -49 -7 -136 -10 -193 l-6 -103 83 4 c78 5 125 12 223 35 66 16
123 38 185 73 34 19 123 109 138 139 25 52 50 148 57 220 5 64 21 160 40 248
4 17 12 22 35 22 16 0 32 5 35 10 3 6 23 10 44 10 20 0 41 4 47 9 5 5 50 12
99 15 118 6 188 16 199 27 6 5 20 9 33 9 13 0 23 5 23 10 0 6 9 10 20 10 11 0
20 5 20 10 0 6 7 10 16 10 8 0 21 6 28 13 7 6 28 23 46 37 43 32 80 69 80 79
0 4 11 21 25 37 14 16 25 35 25 42 0 6 5 12 10 12 6 0 10 9 10 20 0 11 5 20
10 20 6 0 10 10 10 23 0 13 4 27 9 33 13 14 20 86 31 324 5 118 11 230 14 248
4 27 2 32 -15 32 -10 0 -19 -4 -19 -10z"/>
</g>
</svg>
